<?xml version="1.0" standalone="no"?>
<!DOCTYPE svg PUBLIC "-//W3C//DTD SVG 20010904//EN"
 "http://www.w3.org/TR/2001/REC-SVG-20010904/DTD/svg10.dtd">
<svg version="1.0" xmlns="http://www.w3.org/2000/svg"
 width="500.000000pt" height="500.000000pt" viewBox="0 0 500.000000 500.000000"
 preserveAspectRatio="xMidYMid meet">
<metadata>
Created by potrace 1.14, written by Peter Selinger 2001-2017
</metadata>
<g transform="translate(0.000000,500.000000) scale(0.100000,-0.100000)"
fill="#000000" stroke="none">
<path d="M2260 4800 c-25 -4 -70 -10 -100 -14 -147 -17 -379 -81 -545 -151
-360 -150 -671 -384 -912 -683 -278 -345 -441 -731 -501 -1187 -9 -65 -8 -499
1 -547 4 -21 9 -54 12 -74 43 -302 181 -657 360 -924 229 -342 536 -611 900
-790 183 -90 364 -155 505 -184 214 -43 324 -54 515 -54 155 0 316 13 418 33
15 3 38 7 52 9 14 3 33 7 43 10 9 3 28 7 42 10 104 19 346 108 487 179 421
213 767 549 996 966 31 57 57 106 57 108 0 2 12 30 26 61 84 184 154 439 181
658 10 86 10 470 0 544 -4 30 -9 69 -11 85 -8 55 -48 239 -58 265 -5 14 -12
36 -14 49 -11 55 -91 253 -149 370 -57 113 -178 307 -232 372 -216 258 -347
378 -568 524 -142 93 -256 152 -420 215 -60 23 -119 46 -130 50 -18 8 -159 45
-209 56 -20 5 -139 26 -221 39 -57 10 -471 13 -525 5z"/>
</g>
</svg>
